<?xml version="1.0" standalone="no"?><!DOCTYPE svg PUBLIC "-//W3C//DTD SVG 1.1//EN" "http://www.w3.org/Graphics/SVG/1.1/DTD/svg11.dtd"><svg t="1682939751742" class="icon" viewBox="0 0 1024 1024" version="1.1" xmlns="http://www.w3.org/2000/svg" p-id="1562" xmlns:xlink="http://www.w3.org/1999/xlink" width="200" height="200"><path d="M51.2 0h716.8a256 256 0 0 1 256 256v716.8a51.2 51.2 0 0 1-51.2 51.2H256A256 256 0 0 1 0 768V51.2a51.2 51.2 0 0 1 51.2-51.2z" fill="#F5AD30" p-id="1563"></path><path d="M499.136 166.272a25.6 25.6 0 0 1 25.7152 0l309.76 179.8784a25.6 25.6 0 0 1 0 44.2752l-309.76 179.8784a25.6 25.6 0 0 1-25.7152 0L189.3504 390.4896a25.6 25.6 0 0 1 0-44.2752z" fill="#FFFFFF" p-id="1564"></path><path d="M160.907301 519.585004m19.2-33.255375l0 0q19.2-33.255376 52.455376-14.055376l286.240102 165.2608q33.255376 19.2 14.055376 52.455376l0 0q-19.2 33.255376-52.455376 14.055375l-286.240102-165.2608q-33.255376-19.2-14.055376-52.455375Z" fill="#FFFFFF" p-id="1565"></path><path d="M160.911544 659.240352m19.2-33.255375l0 0q19.2-33.255376 52.455375-14.055376l286.240102 165.2608q33.255376 19.2 14.055376 52.455376l0 0q-19.2 33.255376-52.455376 14.055375l-286.240102-165.2608q-33.255376-19.2-14.055375-52.455375Z" fill="#FFFFFF" p-id="1566"></path><path d="M491.944701 725.527m-19.2-33.255376l0 0q-19.2-33.255376 14.055375-52.455375l306.403945-176.9024q33.255376-19.2 52.455376 14.055375l0 0q19.2 33.255376-14.055376 52.455376l-306.403945 176.9024q-33.255376 19.2-52.455375-14.055376Z" fill="#FFFFFF" p-id="1567"></path><path d="M491.944258 865.200344m-19.2-33.255376l0 0q-19.2-33.255376 14.055375-52.455375l306.403945-176.9024q33.255376-19.2 52.455376 14.055375l0 0q19.2 33.255376-14.055376 52.455376l-306.403945 176.9024q-33.255376 19.2-52.455375-14.055376Z" fill="#FFFFFF" p-id="1568"></path></svg>