<?xml version="1.0" standalone="no"?><!DOCTYPE svg PUBLIC "-//W3C//DTD SVG 1.1//EN" "http://www.w3.org/Graphics/SVG/1.1/DTD/svg11.dtd"><svg t="1682939227583" class="icon" viewBox="0 0 1024 1024" version="1.1" xmlns="http://www.w3.org/2000/svg" p-id="1117" xmlns:xlink="http://www.w3.org/1999/xlink" width="200" height="200"><path d="M0 0m256 0l512 0q256 0 256 256l0 512q0 256-256 256l-512 0q-256 0-256-256l0-512q0-256 256-256Z" fill="#6A30F5" p-id="1118"></path><path d="M512 320m-140.8 0a140.8 140.8 0 1 0 281.6 0 140.8 140.8 0 1 0-281.6 0Z" fill="#FFFFFF" p-id="1119"></path><path d="M204.8 576m134.4 0l358.4 0q134.4 0 134.4 134.4l0 0q0 134.4-134.4 134.4l-358.4 0q-134.4 0-134.4-134.4l0 0q0-134.4 134.4-134.4Z" fill="#FFFFFF" p-id="1120"></path></svg>